<?xml version="1.0" encoding="utf-8"?>
<!-- Generator: Adobe Illustrator 16.0.0, SVG Export Plug-In . SVG Version: 6.00 Build 0)  -->
<!DOCTYPE svg PUBLIC "-//W3C//DTD SVG 1.1 Basic//EN" "http://www.w3.org/Graphics/SVG/1.1/DTD/svg11-basic.dtd">
<svg version="1.1" baseProfile="basic" id="Capa_1" xmlns="http://www.w3.org/2000/svg" xmlns:xlink="http://www.w3.org/1999/xlink"
	 x="0px" y="0px" width="50px" height="50px" viewBox="0 0 50 50" xml:space="preserve">
<path fill="#F4C53D" d="M40.201,8.875c-0.038,0.007-0.075,0.016-0.112,0.028c-0.487,0.089-0.812,0.556-0.723,1.043
	c0.035,0.192,0.131,0.367,0.274,0.5c3.709,3.729,6.002,8.858,6.002,14.556c0,5.679-2.288,10.825-6.002,14.556
	c-0.386,0.312-0.447,0.877-0.136,1.263c0.311,0.385,0.876,0.446,1.262,0.136c0.05-0.041,0.096-0.086,0.136-0.136
	c4.035-4.057,6.535-9.655,6.535-15.819c0-6.178-2.476-11.766-6.507-15.818C40.748,8.973,40.479,8.859,40.201,8.875z M9.63,8.902
	C9.426,8.932,9.238,9.031,9.098,9.183c-4.036,4.056-6.535,9.655-6.535,15.818c0,6.178,2.475,11.765,6.507,15.819
	c0.349,0.355,0.92,0.362,1.276,0.014c0.356-0.349,0.362-0.92,0.014-1.276l0,0c-3.709-3.729-6.002-8.859-6.002-14.556
	c0-5.68,2.289-10.824,6.002-14.556c0.36-0.341,0.376-0.909,0.035-1.27C10.198,8.968,9.914,8.867,9.63,8.902z M17.091,15.438
	c-0.201,0.022-0.389,0.11-0.533,0.252c-2.535,2.301-4.123,5.626-4.123,9.312c0,3.692,1.59,7.018,4.123,9.311
	c0.331,0.368,0.898,0.399,1.268,0.068c0.369-0.333,0.399-0.899,0.067-1.269c-0.039-0.043-0.082-0.082-0.129-0.117
	c-2.17-1.966-3.534-4.815-3.534-7.994c0-3.168,1.358-6.019,3.534-7.994c0.374-0.325,0.414-0.893,0.088-1.266
	C17.662,15.524,17.379,15.41,17.091,15.438z M32.713,15.438c-0.492,0.061-0.842,0.508-0.782,1c0.028,0.221,0.137,0.424,0.306,0.57
	c2.17,1.966,3.533,4.815,3.533,7.994c0,3.168-1.358,6.019-3.533,7.994c-0.396,0.298-0.477,0.859-0.18,1.257
	c0.297,0.396,0.859,0.477,1.257,0.179c0.046-0.035,0.09-0.074,0.129-0.118c2.536-2.301,4.123-5.626,4.123-9.311
	c0-3.691-1.591-7.018-4.123-9.312c-0.173-0.167-0.405-0.258-0.646-0.252C32.769,15.436,32.741,15.436,32.713,15.438z M25,20.514
	c-2.469,0-4.487,2.017-4.487,4.488c0,2.465,2.017,4.488,4.487,4.488s4.487-2.022,4.487-4.488C29.487,22.53,27.468,20.514,25,20.514z
	 M25,22.309c1.504,0,2.692,1.186,2.692,2.692c0,1.496-1.191,2.693-2.692,2.693c-1.501,0-2.692-1.197-2.692-2.693
	C22.308,23.495,23.496,22.309,25,22.309z"/>
</svg>
